{"title":"The Ghoul 1933 XviD-NvadR","uid":6435872,"size":734828759,"categoryP":"video","categoryS":"movies","magnet":"?xt=urn:btih:15a12ad6d608af9dec79d37692c2e57d395801d4&amp;dn=The+Ghoul+1933+XviD-NvadR&amp;tr=udp%3A%2F%2Ftracker.openbittorrent.com%3A80&amp;tr=udp%3A%2F%2Fopen.demonii.com%3A1337&amp;tr=udp%3A%2F%2Ftracker.coppersurfer.tk%3A6969&amp;tr=udp%3A%2F%2Fexodus.desync.com%3A6969","seeders":1,"leechers":1,"uploader":"ReconRedneck","files":-1,"time":1306805911,"description":"The.Ghoul.1933.XviD-NvadR &lt;a href=&quot;\nhttp://www.imdb.com/title/tt0024055/&quot; rel=&quot;nofollow&quot; target=&quot;_NEW&quot;&gt;\nhttp://www.imdb.com/title/tt0024055/&lt;/a&gt;\n\nTHE GHOUL was made at the height of Karloff's fame following the actor's triumph in Universal's THE MUMMY and THE OLD DARK HOUSE. The cast is outstanding with a very young Ralph Richardson as a cleric who proves to be much more at the film's end, and of course the eccentric Ernest Thesiger as Karloff's very nervous Scottish manservant. Cedric Hardwicke appears as a shady lawyer right out of Charles Dickens and overacts accordingly.\n\nHaving seen mouth-watering stills from this film for the last 40 years, this pristine transfer is a sight to behold. Although in cleaning the print up we do lose some definition in the process but all in all this is a gorgeous transfer from the Golden Age of Horror. After recovering from that, THE GHOUL does fall short in the script department as it is an obvious attempt by Gaumont to capitalize on the success of Karloff's Universal films by making a film that is part mummy with a dash of J.P. Priestley even to the extent of casting Thesiger in yet another old dark house this time filled with Egyptian artifacts.\n\n----------------- TRAILER ----------------\n------------------------------------------\n\nKarloff's character that, of Professor Moriant, is a grotesque figure from the first shot and really doesn't change that much when he returns from the grave as the title would suggest. If James Whale or Karl Freund had been in the director's chair this might be the masterpiece we all hoped for all these years but time has given this film a place in film history regardless of its shortcomings.\n\nThe plot of THE GHOUL is simple Karloff is unhinged by his belief in the afterlife promised by the God Anubis and secures a sacred jewel known as the eternal light to grant him immortality. The gem is buried with him only to be stolen of course and Karloff's resurrection from the tomb and return to the old dark house to reclaim it is the main set piece and for the most part delivers enough atmosphere to make it a must for fans of Karloff and classic Universal horror.\n\nBesides thefascinating cast of British character actors, the role made for Fay Wray is played by Dorothy Hyson with great charm and she might have gone on the bigger things if she hadn't chosen a family over a career. The sets are wonderful and very Germanic thanks to cameraman GÃƒÂ¼nther Krampl and his art director who give the film what director Hunter could not!\n\nOne thing that really stands out for this writer is the sequence where Karloff mutilates his chest with a knife to appease Anubis, by carving a mystic symbol on it. Definitely pre-code material to say the least!\n\n---------------- SCREENSHOTS --------------- &lt;a href=&quot;\nhttp://www.postimg.com/38000/photo-37617.jpg&quot; rel=&quot;nofollow&quot; target=&quot;_NEW&quot;&gt;\nhttp://www.postimg.com/38000/photo-37617.jpg&lt;/a&gt;\n &lt;a href=&quot;\nhttp://www.postimg.com/38000/photo-37618.jpg&quot; rel=&quot;nofollow&quot; target=&quot;_NEW&quot;&gt;\nhttp://www.postimg.com/38000/photo-37618.jpg&lt;/a&gt;\n &lt;a href=&quot;\nhttp://www.postimg.com/38000/photo-37619.jpg&quot; rel=&quot;nofollow&quot; target=&quot;_NEW&quot;&gt;\nhttp://www.postimg.com/38000/photo-37619.jpg&lt;/a&gt;\n &lt;a href=&quot;\nhttp://www.postimg.com/38000/photo-37620.jpg&quot; rel=&quot;nofollow&quot; target=&quot;_NEW&quot;&gt;\nhttp://www.postimg.com/38000/photo-37620.jpg&lt;/a&gt;\n--------------------------------------------\n\n   General\n      \n      Format : AVI\n      Format/Info : Audio Video Interleave\n      File size : 701 MiB\n      Duration : 1h 20mn\n      Overall bit rate : 1 222 Kbps\n      Writing library : VirtualDub-MPEG2 build 24586/release\n\n   Video \n\n      Format : MPEG-4 Visual\n      Format profile : Advanced\n      Format settings, BVOP : 2\n      Format settings, QPel : No\n      Format settings, GMC : No warppoints\n      Format settings, Matrix : (MPEG)\n      Muxing mode : Packed bitstream\n      Codec ID : XVID\n      Codec ID/Hint : XviD\n      Duration : 1h 20mn\n      Bit rate : 1 116 Kbps\n      Width : 640 pixels\n      Height : 480 pixels\n      Display aspect ratio : 4:3\n      Frame rate : 23.976 fps\n      Resolution : 24 bits\n      Colorimetry : 4:2:0\n      Scan type : Progressive\n      Bits/(Pixel*Frame) : 0.152\n      Stream size : 640 MiB (91%)\n      Writing library : XviD 63\n\n   Audio \n\n      Audio Language : English\n      Format : MPEG Audio\n      Format version : Version 1\n      Format profile : Layer 3\n      Codec ID : 55\n      Codec ID/Hint : MP3\n      Duration : 1h 20mn\n      Bit rate mode : Constant\n      Bit rate : 96.0 Kbps\n      Channel(s) : 2 channels\n      Sampling rate : 48.0 KHz\n      Resolution : 16 bits\n      Stream size : 55.1 MiB (8%)\n      Alignment : Split accross interleaves\n      Interleave, duration : 42 ms (1.00 video frame)\n      Interleave, preload duration : 500 ms\n      \n      SUBTITLES INCLUDE - ENGLISH - FRENCH - SPANISH                      \n      \n-------------- TORRENT STATS --------------- &lt;a href=&quot;\nhttp://torrent-stats.info/d376/122588500.png&quot; rel=&quot;nofollow&quot; target=&quot;_NEW&quot;&gt;\nhttp://torrent-stats.info/d376/122588500.png&lt;/a&gt;","torrent":{"xt":"urn:btih:15a12ad6d608af9dec79d37692c2e57d395801d4","amp;dn":"The+Ghoul+1933+XviD-NvadR","amp;tr":["udp%3A%2F%2Ftracker.openbittorrent.com%3A80","udp%3A%2F%2Fopen.demonii.com%3A1337","udp%3A%2F%2Ftracker.coppersurfer.tk%3A6969","udp%3A%2F%2Fexodus.desync.com%3A6969"],"infoHash":"15a12ad6d608af9dec79d37692c2e57d395801d4","infoHashBuffer":{"type":"Buffer","data":[21,161,42,214,214,8,175,157,236,121,211,118,146,194,229,125,57,88,1,212]},"announce":[],"urlList":[]}}